<svg xmlns="http://www.w3.org/2000/svg" width="18" height="24" fill="none"><path fill="#000" d="M4.792 15.728c0-.301.495-.493.903-.35l2.518.926c.197.07.32.204.32.35v6.932c0 .302-.493.494-.9.35l-2.522-.926c-.197-.07-.32-.204-.32-.35v-6.932ZM.122.66c0-.301.495-.494.903-.35l2.52.926c.198.073.321.204.321.35v21.741c0 .302-.496.494-.903.35L.44 22.75c-.197-.07-.32-.204-.32-.35V.66Zm9.34 13.905c0-.301.495-.493.903-.35l2.522.926c.197.07.32.204.32.35v6.388c0 .302-.497.494-.904.35l-2.522-.926v-.001c-.196-.07-.32-.204-.32-.35v-6.386Zm4.672-7.783c0-.302.492-.494.9-.35l2.52.926h.004c.198.07.32.204.32.35v10.492c0 .301-.495.493-.903.349l-2.522-.926c-.197-.069-.32-.203-.32-.35V6.782ZM9.46 3.096c0-.298.496-.49.904-.345l2.522.925c.197.07.32.2.32.346v6.388c0 .302-.497.494-.904.35L9.78 9.835c-.196-.07-.32-.204-.32-.35V3.096ZM4.791.395c0-.298.496-.49.904-.346l2.518.925c.197.07.32.204.32.35v6.95c0 .302-.493.494-.9.35l-2.522-.926c-.197-.069-.32-.204-.32-.35V.395Z"/></svg>